<svg width="24" height="22" viewBox="0 0 24 22" fill="none" xmlns="http://www.w3.org/2000/svg">
<path d="M12 21.3784C11.8786 21.3784 11.7572 21.347 11.6485 21.2842C11.5304 21.2161 8.72392 19.5866 5.8772 17.1314C4.18999 15.6763 2.84318 14.233 1.87427 12.8417C0.620464 11.0415 -0.0100507 9.3098 0.000121129 7.69482C0.0120274 5.8156 0.685104 4.04833 1.89551 2.71848C3.12635 1.36624 4.76894 0.621582 6.5208 0.621582C8.76596 0.621582 10.8187 1.87924 12.0001 3.87151C13.1814 1.87928 15.2341 0.621582 17.4793 0.621582C19.1344 0.621582 20.7134 1.29349 21.9258 2.51355C23.2563 3.85243 24.0123 5.74421 23.9999 7.70372C23.9897 9.31589 23.3473 11.0449 22.0908 12.8427C21.1189 14.2333 19.7739 15.6759 18.0933 17.1306C15.257 19.5856 12.4707 21.215 12.3535 21.2831C12.2442 21.3466 12.1221 21.3784 12 21.3784Z" fill="#F89E53"/>
</svg>
