<svg width="22" height="28" viewBox="0 0 22 28" fill="none" xmlns="http://www.w3.org/2000/svg">
<path d="M14.9199 4.92001C15.4239 4.33904 15.8083 3.66423 16.0508 2.93432C16.2934 2.20441 16.3893 1.43378 16.3332 0.666672C14.7857 0.791588 13.3492 1.51941 12.3332 2.69334C11.8467 3.25597 11.478 3.91051 11.249 4.6182C11.0199 5.32588 10.9352 6.07233 10.9999 6.81334C11.7547 6.81963 12.5009 6.65213 13.1807 6.32382C13.8604 5.9955 14.4555 5.51517 14.9199 4.92001ZM18.2799 14.84C18.2888 13.8183 18.5579 12.8158 19.0618 11.9269C19.5657 11.0381 20.2878 10.2923 21.1599 9.76C20.6095 8.96699 19.8819 8.31312 19.0349 7.85024C18.1878 7.38736 17.2445 7.12821 16.2799 7.09334C14.1999 6.88001 12.2799 8.30667 11.1732 8.30667C10.0665 8.30667 8.50655 7.12001 6.77322 7.14667C5.64005 7.184 4.53591 7.51438 3.56848 8.10559C2.60105 8.6968 1.80336 9.52865 1.25322 10.52C-1.09345 14.6 0.653215 20.6667 2.99988 23.96C4.06655 25.5733 5.39988 27.4 7.15988 27.3333C8.91988 27.2667 9.49321 26.24 11.5332 26.24C13.5732 26.24 14.1999 27.3333 15.9332 27.2933C17.6665 27.2533 18.8932 25.64 20.0132 24.0267C20.8066 22.8554 21.4264 21.5755 21.8532 20.2267C20.7965 19.776 19.895 19.0257 19.2599 18.0684C18.6249 17.1111 18.2842 15.9888 18.2799 14.84Z" fill="#1E1E1E"/>
</svg>
