<svg width="40" height="40" viewBox="0 0 40 40" fill="none" xmlns="http://www.w3.org/2000/svg">
<g clip-path="url(#clip0_2_344)">
<path d="M23.0638 5.41107C23.0638 3.26569 22.0668 1.35376 20.5114 0.112C20.3243 -0.0372315 20.0582 -0.0372315 19.8711 0.112C18.3156 1.35376 17.3186 3.26599 17.3186 5.41107C17.3186 7.46674 18.2341 9.30848 19.6791 10.5512C19.9745 10.8051 20.4076 10.8051 20.703 10.5512C22.1483 9.30848 23.0638 7.46674 23.0638 5.41107Z" fill="#8BAD13"/>
<path d="M20.1913 13.7524C19.8578 13.7524 19.5874 13.4821 19.5874 13.1485V4.33197C19.5874 3.99842 19.8578 3.72803 20.1913 3.72803C20.5249 3.72803 20.7953 3.99842 20.7953 4.33197V13.1485C20.7953 13.4821 20.5249 13.7524 20.1913 13.7524Z" fill="#3F6701"/>
<path d="M31.5637 21.4752C33.709 21.4752 35.6213 20.4782 36.863 18.9227C37.0123 18.7357 37.0123 18.4696 36.863 18.2825C35.6213 16.727 33.709 15.73 31.5637 15.73C29.5083 15.73 27.6666 16.6455 26.4236 18.0905C26.1697 18.3859 26.1697 18.819 26.4236 19.1144C27.6666 20.5597 29.5083 21.4752 31.5637 21.4752Z" fill="#8BAD13"/>
<path d="M32.6432 19.2066H23.8264C23.4928 19.2066 23.2224 18.9362 23.2224 18.6026C23.2224 18.2691 23.4928 17.999 23.8264 17.999H32.6432C32.9764 17.999 33.2468 18.2691 33.2468 18.6026C33.2468 18.9362 32.9764 19.2066 32.6432 19.2066Z" fill="#3F6701"/>
<path d="M31.2282 10.7608C32.7453 9.24378 33.3925 7.18689 33.1707 5.20874C33.1438 4.97101 32.9558 4.78272 32.7181 4.75617C30.74 4.5343 28.6828 5.18158 27.166 6.69831C25.7125 8.15186 25.0573 10.1013 25.2004 12.0023C25.2297 12.3908 25.5361 12.6968 25.9246 12.7261C27.8252 12.8693 29.7747 12.2141 31.2282 10.7608Z" fill="#8BAD13"/>
<path d="M23.7259 14.8047C23.5715 14.8047 23.4168 14.7458 23.299 14.628C23.0631 14.3921 23.0631 14.0097 23.299 13.7738L29.5331 7.53937C29.769 7.30378 30.1514 7.30378 30.3873 7.53937C30.6232 7.77527 30.6232 8.15766 30.3873 8.39356L24.1529 14.628C24.0351 14.7458 23.8807 14.8047 23.7259 14.8047Z" fill="#3F6701"/>
<path d="M8.7933 10.0436C7.27657 8.52692 6.62899 6.46973 6.85116 4.49188C6.87771 4.25415 7.0657 4.06586 7.30343 4.03931C9.28158 3.81745 11.3388 4.46472 12.8555 5.98145C14.309 7.435 14.9643 9.38446 14.8211 11.2851C14.7918 11.6736 14.4857 11.98 14.097 12.0093C12.1963 12.1524 10.2469 11.4972 8.7933 10.0436Z" fill="#8BAD13"/>
<path d="M16.2958 14.0875C16.1414 14.0875 15.9867 14.0286 15.8689 13.9108L9.63445 7.6767C9.39854 7.4408 9.39854 7.05841 9.63445 6.82251C9.87035 6.58692 10.2527 6.58692 10.4886 6.82251L16.7228 13.0566C16.9587 13.2925 16.9587 13.6749 16.7228 13.9108C16.605 14.0286 16.4506 14.0875 16.2958 14.0875Z" fill="#3F6701"/>
<path d="M6.49718 21.7932V33.8208C6.38213 33.808 6.26525 33.8007 6.14654 33.8007C4.36187 33.8007 2.92937 35.3089 3.05449 37.1201C3.15978 38.6487 4.39818 39.8868 5.92681 39.9924C7.73803 40.1172 9.24621 38.685 9.24621 36.9003V23.2651C9.24621 22.6428 9.63866 22.0883 10.2252 21.8808L17.9108 19.1623C18.3118 19.0207 18.7323 19.3179 18.7323 19.7434V29.3118C18.6172 29.299 18.5004 29.2914 18.3816 29.2914C16.597 29.2914 15.1645 30.7999 15.2896 32.6111C15.3949 34.1397 16.6333 35.3778 18.1619 35.4831C19.9731 35.6082 21.4813 34.1757 21.4813 32.3911V17.5824C21.4813 16.3022 20.2127 15.4086 19.0073 15.8402L7.88634 19.8206C7.05321 20.1187 6.49718 20.9082 6.49718 21.7932Z" fill="#FF508C"/>
<path d="M16.3442 19.1623L8.65869 21.8808C8.07215 22.0883 7.67999 22.6428 7.67999 23.2651V36.9003C7.67999 38.3417 6.6958 39.5529 5.36279 39.8996C5.54498 39.9475 5.73358 39.979 5.92676 39.9924C7.73798 40.1172 9.24616 38.685 9.24616 36.9003V23.2651C9.24616 22.6428 9.63861 22.0883 10.2252 21.8808L17.0928 19.4516C16.9552 19.1962 16.6442 19.0561 16.3442 19.1623Z" fill="#FF77A6"/>
<path d="M19.0072 15.8402L18.8372 15.9009C19.4604 16.189 19.9151 16.8161 19.9151 17.5824V32.3914C19.9151 33.8327 18.9309 35.0437 17.5979 35.3906C17.7801 35.4385 17.9687 35.47 18.1619 35.4834C19.9731 35.6082 21.4813 34.176 21.4813 32.3914V17.5824C21.4813 16.3022 20.2123 15.4086 19.0072 15.8402Z" fill="#FF77A6"/>
</g>
<defs>
<clipPath id="clip0_2_344">
<rect width="40" height="40" fill="white"/>
</clipPath>
</defs>
</svg>
