<svg width="24" height="24" viewBox="0 0 24 24" fill="none" xmlns="http://www.w3.org/2000/svg">
<g clip-path="url(#clip0_2_496)">
<path d="M22.5469 12L17.625 14.1094L12 12L10.5938 6.375L12 1.43578C12.0975 1.30406 12.2044 1.17797 12.3211 1.05891C12.9886 0.375938 13.8731 0 14.8125 0C15.7519 0 16.6364 0.375938 17.3039 1.05891C17.9644 1.73438 18.3281 2.62359 18.3281 3.5625C18.3281 3.58594 18.3277 3.60938 18.3272 3.63281C19.9303 3.95906 21.1406 5.37984 21.1406 7.07812C21.1406 7.72031 20.962 8.34188 20.633 8.88188C21.0239 9.08156 21.3769 9.35344 21.6713 9.68672C22.2361 10.3252 22.5469 11.1464 22.5469 12Z" fill="#FF5364"/>
<path d="M12.7031 17.625L12 22.5642C11.9025 22.6959 11.7956 22.822 11.6789 22.9411C11.0114 23.6241 10.1269 24 9.1875 24C8.24813 24 7.36359 23.6241 6.69609 22.9411C6.03563 22.2656 5.67188 21.3764 5.67188 20.4375C5.67188 20.4141 5.67234 20.3906 5.67281 20.3672C4.06969 20.0409 2.85938 18.6202 2.85938 16.9219C2.85938 16.2797 3.03797 15.6581 3.36703 15.1177C2.97609 14.9184 2.62313 14.6466 2.32875 14.3133C1.76391 13.6748 1.45312 12.8531 1.45312 12L6.375 9.1875L12 12L12.7031 17.625Z" fill="#474F54"/>
<path d="M13.4062 7.78125C13.4062 8.55797 12.7767 9.1875 12 9.1875V12H9.1875C9.1875 11.2233 8.55797 10.5938 7.78125 10.5938C7.00453 10.5938 6.375 11.2233 6.375 12H1.45312C1.45312 11.1464 1.76391 10.3252 2.32875 9.68672C2.62313 9.35344 2.97609 9.08156 3.36703 8.88188C3.03797 8.34188 2.85938 7.72031 2.85938 7.07812C2.85938 5.37984 4.06969 3.95906 5.67281 3.63281C5.67234 3.60938 5.67188 3.58594 5.67188 3.5625C5.67188 2.62359 6.03563 1.73438 6.69609 1.05891C7.36359 0.375938 8.24813 0 9.1875 0C10.1269 0 11.0114 0.375938 11.6789 1.05891C11.7956 1.17797 11.9025 1.30406 12 1.43578V6.375C12.7767 6.375 13.4062 7.00453 13.4062 7.78125Z" fill="#64E1DC"/>
<path d="M22.5469 12C22.5469 12.8531 22.2361 13.6748 21.6713 14.3133C21.3769 14.6466 21.0239 14.9184 20.633 15.1177C20.962 15.6581 21.1406 16.2797 21.1406 16.9219C21.1406 18.6202 19.9303 20.0409 18.3272 20.3672C18.3277 20.3906 18.3281 20.4141 18.3281 20.4375C18.3281 21.3764 17.9644 22.2656 17.3039 22.9411C16.6364 23.6241 15.7519 24 14.8125 24C13.8731 24 12.9886 23.6241 12.3211 22.9411C12.2044 22.822 12.0975 22.6959 12 22.5642V17.625C11.2233 17.625 10.5938 16.9955 10.5938 16.2188C10.5938 15.442 11.2233 14.8125 12 14.8125V12H14.8125C14.8125 12.7767 15.442 13.4062 16.2188 13.4062C16.9955 13.4062 17.625 12.7767 17.625 12H22.5469Z" fill="#FFBB33"/>
</g>
<defs>
<clipPath id="clip0_2_496">
<rect width="24" height="24" fill="white"/>
</clipPath>
</defs>
</svg>
