<svg width="40" height="40" viewBox="0 0 40 40" fill="none" xmlns="http://www.w3.org/2000/svg">
<g clip-path="url(#clip0_2_309)">
<path d="M12.3112 34.6899C14.6767 35.7596 15.7126 40.0003 15.7126 40.0003L33.0229 39.9527C32.6982 39.2793 32.3296 38.628 31.9195 38.003C31.5936 37.3356 31.3201 36.6439 31.1015 35.9341C30.6965 34.5626 30.416 33.1573 30.2636 31.7354C30.0066 29.5507 30.3358 27.337 31.2174 25.3216C31.9946 23.5499 33.3443 22.1492 34.3739 20.523C35.3925 18.938 35.9408 17.0967 35.9553 15.2127C35.9937 13.3041 35.7594 11.3998 35.2595 9.55751C34.6057 7.32589 33.2418 5.36847 31.3746 3.98233C27.9546 1.29751 24.465 -0.201803 20.0477 0.0230248C17.8373 0.176387 15.6411 0.491483 13.4767 0.965783C11.1195 1.44027 8.6236 2.32165 6.93188 4.10785C5.77785 5.34102 4.88627 6.79571 4.31119 8.38371C4.04164 9.17366 3.82235 9.97986 3.65463 10.7975C3.37205 11.6872 3.03132 12.5573 2.63463 13.4023C2.51801 13.6596 2.46729 13.9419 2.48705 14.2237C2.62084 15.1782 4.05119 15.5865 4.06222 16.572C4.04765 16.7898 3.9807 17.0008 3.86705 17.1872C3.02798 18.9603 1.99797 20.6367 0.795324 22.1865C0.511876 22.5313 -0.0653652 23.221 0.00635891 23.7134C0.0573934 24.063 0.476704 24.3534 0.735324 24.5458C1.28705 24.9554 2.4105 25.2354 2.5505 25.9747C2.62359 26.3512 2.5783 26.741 2.42084 27.0906C2.03877 27.8947 1.61601 28.3244 1.91601 28.5768C2.21601 28.8292 3.01946 29.4354 3.01946 29.4354C3.01946 29.4354 2.2567 30.4099 2.67877 30.7099C3.2036 31.0823 3.8705 31.2541 4.04912 31.9513C4.1014 32.5038 4.04613 33.0612 3.88636 33.5927C3.83214 34.1127 3.90015 34.6381 4.08498 35.1272C4.33391 36.1053 5.31098 36.7121 6.29808 36.5016C8.33377 36.007 10.3411 35.4022 12.3112 34.6899Z" fill="#B0D3F0"/>
<path d="M29.8071 10.2276L27.145 21.6896L26.8967 22.7586L26.6967 22.1862L26.1864 20.6827L22.6208 10.2759C22.7312 9.91723 22.8553 9.57241 22.9933 9.23448C23.756 7.36276 24.8389 5.63815 26.1933 4.13792C27.5568 5.62239 28.6513 7.33302 29.4277 9.1931C29.5657 9.52413 29.6967 9.86896 29.8071 10.2276Z" fill="#DF4D60"/>
<path d="M26.1864 18.3379V20.6827L22.6208 10.2758C22.7312 9.91722 22.8553 9.5724 22.9933 9.23447C23.5772 9.77807 24.0914 10.3919 24.5243 11.0621C25.5549 12.7705 26.1274 14.7159 26.1864 16.7103C26.214 17.2525 26.214 17.7957 26.1864 18.3379Z" fill="#A73A48"/>
<path d="M29.8069 10.2276L27.1449 21.6897L26.6966 22.1862L26.1862 22.7586V18.3379C26.1586 17.7957 26.1586 17.2525 26.1862 16.7103C26.2426 14.7165 26.8127 12.771 27.8414 11.0621C28.2873 10.3733 28.8205 9.74505 29.4276 9.1931C29.5656 9.52413 29.6966 9.86896 29.8069 10.2276Z" fill="#A73A48"/>
<path d="M6.36361 11.3572C6.1819 11.3173 6.02403 11.2056 5.92585 11.0476C5.82768 10.8895 5.79752 10.6985 5.84223 10.5179C5.95062 10.0388 6.08648 9.56628 6.24913 9.10275C6.72882 7.77546 7.47199 6.55888 8.43396 5.5262C9.55396 4.34275 11.3905 3.49034 13.8933 2.99241C14.135 2.94436 14.384 3.02892 14.5464 3.21422C14.7089 3.39952 14.7601 3.65742 14.6809 3.89077C14.6017 4.12412 14.4039 4.29747 14.1622 4.34551C11.9457 4.7862 10.3553 5.50206 9.43603 6.47379C8.60261 7.37023 7.95893 8.42584 7.54361 9.57723C7.39917 9.99185 7.27851 10.4144 7.18223 10.8428C7.09539 11.2088 6.73114 11.4378 6.36361 11.3572Z" fill="#ECF0F1"/>
<path d="M5.51729 14.4834C5.89818 14.4834 6.20695 14.1747 6.20695 13.7938C6.20695 13.4129 5.89818 13.1041 5.51729 13.1041C5.13641 13.1041 4.82764 13.4129 4.82764 13.7938C4.82764 14.1747 5.13641 14.4834 5.51729 14.4834Z" fill="#ECF0F1"/>
<path d="M26.1864 19.7172V24.1379L24.8484 22.6414L16.0691 12.8207C15.9933 12.3586 15.945 11.9034 15.9174 11.469C15.8209 10.0142 15.9183 8.55316 16.2071 7.12413C18.5556 7.67681 20.7484 8.75435 22.6209 10.2759C23.3571 10.9015 23.9983 11.631 24.5243 12.4414C25.5549 14.1498 26.1274 16.0953 26.1864 18.0896C26.214 18.6318 26.214 19.1751 26.1864 19.7172Z" fill="#FF5364"/>
<path d="M36.4552 11.469C36.4276 11.9034 36.3793 12.3586 36.3035 12.8207H36.2966L27.538 22.6276L26.1862 24.1379V19.7172C26.1586 19.1751 26.1586 18.6318 26.1862 18.0896C26.2426 16.0958 26.8127 14.1503 27.8414 12.4414C28.3829 11.6098 29.0453 10.8637 29.8069 10.2276C31.6682 8.73137 33.8409 7.67095 36.1656 7.12413C36.4543 8.55316 36.5517 10.0142 36.4552 11.469Z" fill="#FF5364"/>
<path d="M26.2276 22.7517C26.2136 22.7525 26.1997 22.7548 26.1862 22.7586C26.1793 22.7586 26.1931 24.1379 26.1862 24.1379C26.0207 24.131 25.5241 22.731 24.8483 22.6414L16.069 12.8207C15.9931 12.3586 15.9448 11.9034 15.9172 11.469C18.1026 11.6945 20.1823 12.523 21.9241 13.8621C25.1931 16.5448 26.0138 21.1241 26.1862 22.4069C26.2207 22.6276 26.2276 22.7517 26.2276 22.7517Z" fill="#DF4D60"/>
<path d="M36.4554 11.469C36.4278 11.9034 36.3795 12.3586 36.3036 12.8207H36.2967L27.5381 22.6276C26.8898 22.7172 26.3726 24.131 26.1864 24.1379L26.1795 22.7517H26.145C26.145 22.7517 26.1519 22.6276 26.1864 22.4069C26.2539 21.892 26.3483 21.3809 26.4692 20.8759L26.4761 20.8414C26.9243 18.9655 27.9381 16.1034 30.1519 14.1241V14.1172C30.2485 14.0276 30.345 13.9448 30.4485 13.8621C32.1481 12.5579 34.1689 11.7381 36.2967 11.4897L36.4554 11.469Z" fill="#DF4D60"/>
<path d="M26.2278 24.0827C26.2092 24.0834 26.1908 24.0857 26.1726 24.0896C25.5588 24.1448 20.2692 24.5448 16.6761 21.5931C12.8485 18.4483 12.3657 12.7034 12.3657 12.7034C12.8907 12.6559 13.4181 12.6398 13.945 12.6552C15.9243 12.6827 19.3519 13.0827 21.9243 15.1931C25.7519 18.3379 26.2278 24.0827 26.2278 24.0827Z" fill="#FF5364"/>
<path d="M26.2276 24.0827C26.209 24.0834 26.1906 24.0857 26.1724 24.0896C25.5379 24.069 20.2621 23.8069 17.0552 20.4414C14.7586 18.0207 14.1172 14.6138 13.9448 12.6552C15.9241 12.6828 19.3517 13.0828 21.9241 15.1931C25.7517 18.3379 26.2276 24.0827 26.2276 24.0827Z" fill="#FB7B76"/>
<path d="M40.0002 12.7034C40.0002 12.7034 39.5243 18.4483 35.6967 21.5931C32.0829 24.5517 26.7795 24.1448 26.2002 24.0827H26.145C26.145 24.0827 26.1519 23.9586 26.1864 23.7379C26.2539 23.223 26.3483 22.7119 26.4692 22.2069L26.4761 22.1724C26.9243 20.2965 27.9381 17.4345 30.1519 15.4552V15.4483C30.2485 15.3586 30.345 15.2759 30.4485 15.1931C32.1481 13.889 34.1689 13.0692 36.2967 12.8207C36.9845 12.7216 37.6778 12.6663 38.3726 12.6552C38.9156 12.6352 39.4593 12.6514 40.0002 12.7034Z" fill="#FF5364"/>
<path d="M38.3726 12.6552C38.2002 14.6276 37.5588 17.9931 35.2967 20.4C32.1105 23.7793 26.8347 24.0621 26.2002 24.0827H26.145C26.145 24.0827 26.1519 23.9586 26.1864 23.7379C26.2539 23.223 26.3483 22.712 26.4692 22.2069L26.4761 22.1724C26.9243 20.2965 27.9381 17.4345 30.1519 15.4552V15.4483C30.2485 15.3586 30.345 15.2759 30.4485 15.1931C32.1481 13.889 34.1689 13.0692 36.2967 12.8207C36.9845 12.7216 37.6778 12.6663 38.3726 12.6552Z" fill="#FB7B76"/>
</g>
<defs>
<clipPath id="clip0_2_309">
<rect width="40" height="40" fill="white"/>
</clipPath>
</defs>
</svg>
