<svg width="16" height="16" viewBox="0 0 16 16" fill="none" xmlns="http://www.w3.org/2000/svg">
<path d="M2.7763 10.8993C2.6483 10.8993 2.52055 10.8505 2.4228 10.7528C2.22755 10.5575 2.22755 10.241 2.4228 10.0458L10.2363 2.23225C10.4313 2.037 10.7481 2.037 10.9433 2.23225C11.1386 2.4275 11.1386 2.744 10.9433 2.93925L3.1298 10.7528C3.0323 10.8503 2.9043 10.8993 2.7763 10.8993Z" fill="#F5821F"/>
<path d="M2.00416 14.5C1.96941 14.5 1.93416 14.4963 1.89891 14.4888C1.62891 14.4308 1.45691 14.165 1.51491 13.895L2.28741 10.2943C2.34541 10.0243 2.61241 9.85276 2.88116 9.91026C3.15116 9.96826 3.32316 10.234 3.26516 10.504L2.49266 14.1048C2.44241 14.3395 2.23491 14.5 2.00416 14.5Z" fill="#F5821F"/>
<path d="M5.60443 13.7275C5.47643 13.7275 5.34868 13.6787 5.25093 13.581C5.05568 13.3857 5.05568 13.0692 5.25093 12.874L13.0644 5.06074C13.2594 4.86549 13.5762 4.86549 13.7714 5.06074C13.9667 5.25599 13.9667 5.57249 13.7714 5.76774L5.95818 13.581C5.86043 13.6787 5.73243 13.7275 5.60443 13.7275Z" fill="#F5821F"/>
<path d="M2.00334 14.5C1.77259 14.5 1.56534 14.3395 1.51484 14.1047C1.45709 13.8347 1.62884 13.569 1.89884 13.511L5.49959 12.7385C5.76984 12.6812 6.03559 12.8527 6.09334 13.1225C6.15109 13.3925 5.97934 13.6582 5.70934 13.7162L2.10859 14.4887C2.07334 14.4965 2.03809 14.5 2.00334 14.5Z" fill="#F5821F"/>
<path d="M12.0037 7.32825C11.8757 7.32825 11.7477 7.2795 11.6502 7.18175L8.82197 4.3535C8.62672 4.15825 8.62672 3.84175 8.82197 3.6465C9.01697 3.45125 9.33398 3.45125 9.52898 3.6465L12.3572 6.47475C12.5525 6.67 12.5525 6.9865 12.3572 7.18175C12.2597 7.2795 12.1317 7.32825 12.0037 7.32825Z" fill="#F5821F"/>
<path d="M13.418 5.91425C13.29 5.91425 13.162 5.8655 13.0643 5.76775C12.869 5.5725 12.869 5.256 13.0643 5.0605C13.3425 4.78225 13.4958 4.4055 13.4958 4C13.4958 3.5945 13.3425 3.21775 13.0643 2.9395C12.7858 2.661 12.409 2.50775 12.0035 2.50775C11.598 2.50775 11.2213 2.661 10.943 2.9395C10.748 3.13475 10.4315 3.135 10.2358 2.9395C10.0405 2.74425 10.0405 2.42775 10.2358 2.23225C10.7028 1.765 11.3305 1.50775 12.0035 1.50775C12.6763 1.50775 13.3043 1.765 13.7713 2.23225C14.2385 2.69925 14.4958 3.327 14.4958 4C14.4958 4.673 14.2385 5.30075 13.7713 5.76775C13.674 5.86525 13.546 5.91425 13.418 5.91425Z" fill="#F5821F"/>
</svg>
