<svg width="23" height="18" viewBox="0 0 23 18" fill="none" xmlns="http://www.w3.org/2000/svg">
<path d="M11.9711 17.6487C11.8595 17.6487 11.748 17.6226 11.648 17.5702C11.5394 17.5134 8.9601 16.1555 6.34375 14.1095C4.79307 12.8969 3.55524 11.6942 2.66474 10.5348C1.51239 9.03456 0.932901 7.59152 0.94225 6.2457C0.953193 4.67968 1.5718 3.20695 2.68426 2.09875C3.8155 0.971879 5.32517 0.351334 6.93526 0.351334C8.99874 0.351334 10.8853 1.39938 11.9711 3.05961C13.0569 1.39942 14.9435 0.351334 17.007 0.351334C18.5281 0.351334 19.9794 0.911254 21.0937 1.92797C22.3165 3.04371 23.0113 4.62019 22.9999 6.25312C22.9905 7.59659 22.4002 9.03745 21.2453 10.5356C20.352 11.6944 19.1159 12.8966 17.5713 14.1088C14.9645 16.1547 12.4037 17.5125 12.296 17.5693C12.1955 17.6222 12.0833 17.6487 11.9711 17.6487ZM6.93522 1.52321C5.69352 1.52321 4.52329 2.00774 3.64007 2.88758C2.74268 3.78152 2.24358 4.97675 2.2347 6.25312C2.21699 8.79378 4.91046 11.439 7.17316 13.2106C9.17176 14.7755 11.1989 15.9502 11.9699 16.3786C12.7369 15.9495 14.7498 14.7752 16.7401 13.2113C18.9964 11.4383 21.6897 8.79058 21.7075 6.24574C21.7167 4.92265 21.1588 3.65 20.1769 2.75402C19.3071 1.96035 18.1813 1.52325 17.007 1.52325C15.0311 1.52325 13.2544 2.78324 12.5861 4.65863C12.4999 4.9005 12.2515 5.06437 11.9712 5.06437C11.6908 5.06437 11.4424 4.90047 11.3563 4.65859C10.6878 2.78324 8.91112 1.52321 6.93522 1.52321Z" fill="#7B7B7B"/>
</svg>
