<svg width="24" height="25" viewBox="0 0 24 25" fill="none" xmlns="http://www.w3.org/2000/svg">
<path d="M23.3524 10.9388C23.3519 10.9383 23.3513 10.9377 23.3508 10.9372L13.5607 1.14746C13.1434 0.72998 12.5886 0.5 11.9984 0.5C11.4083 0.5 10.8535 0.729797 10.436 1.14728L0.651026 10.9321C0.64773 10.9354 0.644434 10.9388 0.641138 10.9421C-0.215796 11.804 -0.214331 13.2024 0.645349 14.0621C1.03811 14.455 1.55685 14.6826 2.11147 14.7064C2.134 14.7086 2.1567 14.7097 2.17959 14.7097H2.56979V21.9144C2.56979 23.34 3.72976 24.5 5.15579 24.5H8.98599C9.37417 24.5 9.68911 24.1852 9.68911 23.7969V18.1484C9.68911 17.4979 10.2183 16.9687 10.8689 16.9687H13.128C13.7786 16.9687 14.3078 17.4979 14.3078 18.1484V23.7969C14.3078 24.1852 14.6225 24.5 15.0109 24.5H18.8411C20.2671 24.5 21.4271 23.34 21.4271 21.9144V14.7097H21.7889C22.3789 14.7097 22.9337 14.4799 23.3513 14.0624C24.2119 13.2013 24.2123 11.8005 23.3524 10.9388Z" fill="#F89E53"/>
</svg>
