<svg width="24" height="25" viewBox="0 0 24 25" fill="none" xmlns="http://www.w3.org/2000/svg">
<path d="M23.4 10.892C23.3993 10.8914 23.3988 10.8907 23.3982 10.8902L13.6081 1.1004C13.1908 0.682923 12.636 0.453125 12.0458 0.453125C11.4557 0.453125 10.9009 0.682923 10.4834 1.1004L0.69839 10.8852C0.695094 10.8885 0.691615 10.892 0.688502 10.8953C-0.168433 11.7572 -0.166968 13.1555 0.692714 14.0152C1.08548 14.4082 1.60403 14.6356 2.15866 14.6596C2.18136 14.6618 2.20407 14.6629 2.22696 14.6629H2.61697V21.8674C2.61697 23.2932 3.77713 24.4532 5.20298 24.4532H9.03318C9.42155 24.4532 9.73631 24.1382 9.73631 23.75V18.1016C9.73631 17.451 10.2657 16.9218 10.9162 16.9218H13.1754C13.826 16.9218 14.3552 17.451 14.3552 18.1016V23.75C14.3552 24.1382 14.6699 24.4532 15.0583 24.4532H18.8885C20.3145 24.4532 21.4745 23.2932 21.4745 21.8674V14.6629H21.8363C22.4263 14.6629 22.9811 14.4331 23.3988 14.0154C24.2593 13.1544 24.2597 11.7535 23.4 10.892ZM22.4043 13.0211C22.2525 13.1729 22.0507 13.2566 21.8363 13.2566H20.7714C20.383 13.2566 20.0682 13.5714 20.0682 13.9597V21.8674C20.0682 22.5177 19.5391 23.0469 18.8885 23.0469H15.7614V18.1016C15.7614 16.6758 14.6014 15.5156 13.1754 15.5156H10.9162C9.49022 15.5156 8.33006 16.6758 8.33006 18.1016V23.0469H5.20298C4.55258 23.0469 4.02323 22.5177 4.02323 21.8674V13.9597C4.02323 13.5714 3.70847 13.2566 3.3201 13.2566H2.27347C2.26248 13.2559 2.25168 13.2553 2.24051 13.2552C2.03103 13.2515 1.83456 13.1684 1.68734 13.021C1.37423 12.7078 1.37423 12.1983 1.68734 11.885C1.68753 11.885 1.68753 11.8848 1.68771 11.8846L1.68826 11.8841L11.478 2.09467C11.6296 1.94287 11.8312 1.85938 12.0458 1.85938C12.2602 1.85938 12.4618 1.94287 12.6136 2.09467L22.4012 11.882C22.4027 11.8835 22.4043 11.885 22.4058 11.8864C22.7172 12.2001 22.7167 12.7086 22.4043 13.0211Z" fill="#7B7B7B"/>
</svg>
