<svg width="40" height="41" viewBox="0 0 40 41" fill="none" xmlns="http://www.w3.org/2000/svg">
<g clip-path="url(#clip0_2_294)">
<path d="M39.6567 29.2074C38.0756 27.6205 36.2081 26.4507 34.1062 25.7304C33.7102 25.5946 33.2721 25.6813 32.957 25.9574C32.8197 26.0777 27.7669 30.8996 20.3223 28.9088C20.2185 28.8791 20.1104 28.8636 20.0005 28.8636C19.8907 28.8636 19.7812 28.8791 19.6776 28.9088C12.233 30.8996 7.18023 26.0777 7.04289 25.9574C6.72773 25.6813 6.28969 25.5947 5.89367 25.7304C3.79172 26.4507 1.92422 27.6205 0.343125 29.2074C0.123516 29.4281 0 29.7278 0 30.0398C0 30.3517 0.123516 30.6509 0.343281 30.8714C3.07914 33.6175 6.71664 35.1298 10.5857 35.1298C14.0763 35.1298 17.3784 33.8986 20.0001 31.6413C22.6217 33.8986 25.9238 35.1298 29.4145 35.1298C33.2835 35.1298 36.921 33.6175 39.6569 30.8714C39.8766 30.6509 40.0002 30.3517 40.0002 30.0398C40 29.7278 39.8765 29.4281 39.6567 29.2074Z" fill="#FF4380"/>
<path d="M39.6567 29.2074C38.0756 27.6205 36.2081 26.4507 34.1062 25.7304C33.7102 25.5946 33.2721 25.6813 32.957 25.9574C32.8197 26.0777 27.7669 30.8996 20.3223 28.9088C20.2185 28.8791 20.1104 28.8636 20.0005 28.8636L20 31.6414C22.6216 33.8987 25.9237 35.1298 29.4144 35.1298C33.2834 35.1298 36.9209 33.6175 39.6568 30.8715C39.8766 30.6509 40.0001 30.3518 40.0001 30.0399C40 29.7278 39.8765 29.4281 39.6567 29.2074Z" fill="#F7006A"/>
<path d="M38.6171 18.2656C36.1154 17.5982 33.4594 17.5456 30.9343 18.1139C30.5258 18.2059 30.1971 18.5097 30.0722 18.9109C29.5274 20.6612 28.1857 23.8021 24.9166 26.3199C23.4381 27.4586 21.7853 28.2979 20 28.8182C18.2147 28.2979 16.5619 27.4586 15.0833 26.3199C11.8143 23.8021 10.4726 20.6612 9.92771 18.9109C9.80287 18.5098 9.4742 18.2059 9.0656 18.1139C6.54045 17.5456 3.88451 17.5981 1.38287 18.2656C0.867246 18.3892 0.483887 18.855 0.483887 19.4104C0.483887 19.5132 0.497324 19.6156 0.523887 19.715C1.72076 24.1957 4.64318 27.5838 8.0481 29.5567C11.383 31.4896 15.6453 32.3353 20.0001 31.2528C24.3548 32.3352 28.6171 31.4896 31.952 29.5567C35.3569 27.5838 38.2793 24.1957 39.4762 19.715C39.5028 19.6156 39.5162 19.5132 39.5162 19.4104C39.5161 18.855 39.1327 18.3892 38.6171 18.2656Z" fill="#FF759D"/>
<path d="M38.6171 18.2656C36.1155 17.5982 33.4594 17.5456 30.9344 18.1139C30.5258 18.2059 30.1971 18.5097 30.0723 18.9109C29.5274 20.6612 28.1857 23.8021 24.9166 26.3199C23.4381 27.4586 21.7853 28.2979 20 28.8182V31.2528C24.3548 32.3352 28.617 31.4896 31.952 29.5567C35.3569 27.5838 38.2792 24.1957 39.4762 19.715C39.5027 19.6156 39.5162 19.5132 39.5162 19.4104C39.5161 18.855 39.1327 18.3892 38.6171 18.2656Z" fill="#FF4380"/>
<path d="M32.5074 9.9599C32.3398 9.3325 31.6975 8.96027 31.0722 9.12831C28.2644 9.88313 25.6724 11.3512 23.5767 13.3738C23.2749 13.6651 23.1509 14.0958 23.2513 14.5037C23.6289 16.0383 24.3196 19.8224 22.5252 24.1705C21.9002 25.685 21.0528 27.072 20.0002 28.3084C18.9475 27.072 18.1 25.685 17.4751 24.1705C15.6806 19.8224 16.3714 16.0383 16.7491 14.5037C16.8495 14.0958 16.7254 13.6651 16.4236 13.3738C14.3278 11.3512 11.7359 9.88313 8.92814 9.12831C8.30282 8.96035 7.66056 9.3325 7.49298 9.9599C6.21392 14.7493 7.11603 19.453 9.21673 23.1046C11.3174 26.7565 14.9242 29.8921 19.6962 31.1759C19.797 31.2031 19.8989 31.2161 19.9996 31.2161C20.1003 31.2161 20.2035 31.2031 20.3043 31.1759C25.0762 29.8921 28.6831 26.7565 30.7838 23.1046C32.8843 19.4529 33.7864 14.7493 32.5074 9.9599Z" fill="#FF4380"/>
<path d="M32.5073 9.9599C32.3397 9.3325 31.6975 8.96027 31.0722 9.12831C28.2644 9.88313 25.6724 11.3512 23.5767 13.3738C23.2749 13.6651 23.1508 14.0958 23.2512 14.5037C23.6289 16.0383 24.3196 19.8224 22.5252 24.1705C21.9002 25.685 21.0528 27.072 20.0001 28.3084L19.9995 31.2161C20.1002 31.2161 20.2033 31.2031 20.3042 31.1759C25.0761 29.8921 28.683 26.7565 30.7836 23.1046C32.8843 19.4529 33.7864 14.7493 32.5073 9.9599Z" fill="#F7006A"/>
<path d="M20.0001 31.216C19.6893 31.216 19.3906 31.092 19.1708 30.8715C16.1037 27.793 13.9536 23.3456 13.9536 18.2286C13.9536 13.1138 16.1013 8.66645 19.1708 5.58569C19.3906 5.36511 19.6886 5.24113 19.9994 5.24113C20.3102 5.24113 20.6089 5.36511 20.8287 5.58569C23.8965 8.6648 26.0459 13.1115 26.0459 18.2286C26.0459 23.3468 23.8949 27.794 20.8287 30.8715C20.6089 31.0921 20.3109 31.216 20.0001 31.216Z" fill="#FF759D"/>
<path d="M19.9999 31.216L19.9993 5.24113C20.31 5.24113 20.6088 5.36511 20.8286 5.58569C23.8964 8.6648 26.0458 13.1115 26.0458 18.2286C26.0458 23.3468 23.8947 27.794 20.8286 30.8715C20.6087 31.0921 20.3107 31.216 19.9999 31.216Z" fill="#FF4380"/>
</g>
<defs>
<clipPath id="clip0_2_294">
<rect width="40" height="40.1483" fill="white" transform="translate(0 0.111328)"/>
</clipPath>
</defs>
</svg>
