<svg width="12" height="12" viewBox="0 0 12 12" fill="none" xmlns="http://www.w3.org/2000/svg">
<path d="M11.8573 0.109232C11.7661 0.0286487 11.6453 -0.0100483 11.5243 0.00250753L3.81001 0.859641C3.59287 0.883673 3.42856 1.06719 3.42859 1.28563V8.92322C3.04016 8.69079 2.59553 8.5691 2.14287 8.57136C0.961297 8.57139 0 9.34023 0 10.2857C0 11.2311 0.961297 11.9999 2.14285 11.9999C3.3244 11.9999 4.28569 11.2315 4.28569 10.2857V3.81425L11.1428 3.05053V8.06481C10.7543 7.83283 10.3097 7.71159 9.85713 7.71423C8.67555 7.71423 7.71428 8.48309 7.71428 9.42852C7.71428 10.3739 8.67558 11.1428 9.85713 11.1428C11.0387 11.1428 12 10.3744 12 9.42852V0.428526C12 0.306634 11.9481 0.190518 11.8573 0.109232Z" fill="white"/>
</svg>
