<svg width="14" height="16" viewBox="0 0 14 16" fill="none" xmlns="http://www.w3.org/2000/svg">
<path d="M13.7606 9.23944C13.7606 12.9703 10.7308 16 7 16C3.26916 16 0.239441 12.9702 0.239441 9.23944C0.239441 8.68856 0.69016 8.23787 1.241 8.23787C1.79185 8.23787 2.24257 8.68859 2.24257 9.23944C2.24257 11.8685 4.37088 13.9969 7 13.9969C9.62913 13.9969 11.7574 11.8686 11.7574 9.23944C11.7574 6.61031 9.6291 4.482 7 4.482V6.28481C7 6.68544 6.6745 6.98591 6.29891 6.98591C6.0986 6.98591 5.92332 6.91078 5.79813 6.78559L3.56966 4.55713C2.99375 3.98122 2.99375 3.02975 3.56966 2.42881L5.79813 0.200312C5.92332 0.075125 6.0986 0 6.29891 0C6.69953 0 7 0.3255 7 0.701094V2.47887C10.7308 2.47887 13.7606 5.50859 13.7606 9.23944Z" fill="white"/>
</svg>
