<svg width="16" height="12" viewBox="0 0 16 12" fill="none" xmlns="http://www.w3.org/2000/svg">
<path fill-rule="evenodd" clip-rule="evenodd" d="M9.10338 3.51725L9.95604 2.6646C10.6582 1.96241 11.5861 1.56117 12.5391 1.51101V0.708516C12.5391 0.307268 12.8651 0.0063324 13.2413 0.0063324C13.4419 0.0063324 13.6175 0.0815819 13.7428 0.206956L15.7742 2.23829C16.2507 2.71479 15.9246 3.51728 15.2475 3.51728H13.9184H13.2914H12.7898C12.2632 3.51728 11.7366 3.7179 11.3604 4.09409L10.5077 4.94674L9.10338 3.51725ZM15.2476 8.50781H14.42H13.2915H12.7899C12.2632 8.50781 11.7366 8.30719 11.3604 7.93101L5.84322 2.41382C5.09088 1.66148 4.06266 1.23514 3.00939 1.23514H1.00312C0.451404 1.23514 0 1.68654 0 2.23826C0 2.78997 0.451404 3.24138 1.00312 3.24138H3.00939C3.53604 3.24138 4.06266 3.442 4.43885 3.81819L6.62065 5.99999L4.43885 8.18178C4.06266 8.55797 3.5611 8.75859 3.00939 8.75859H1.00312C0.451404 8.75859 0 9.21 0 9.76171C0 10.3134 0.451404 10.7648 1.00312 10.7648H3.00939C4.06266 10.7648 5.09088 10.3385 5.84322 9.58615L8.02502 7.40435L9.95604 9.33537C10.6582 10.0376 11.5861 10.4388 12.5391 10.489V11.2915C12.5391 11.6927 12.8651 11.9936 13.2413 11.9936C13.4419 11.9936 13.6175 11.9184 13.7428 11.793L15.7742 9.76168C16.2507 9.31031 15.8996 8.50781 15.2476 8.50781Z" fill="white"/>
</svg>
