<svg width="16" height="16" viewBox="0 0 16 16" fill="none" xmlns="http://www.w3.org/2000/svg">
<path d="M15.3457 1.29352C14.9437 1.08155 14.4568 1.10988 14.0813 1.36634L5.76593 7.05776C5.46846 7.26133 5.29005 7.59828 5.28867 7.95943C5.28761 8.31975 5.46428 8.65817 5.76065 8.86376L14.0753 14.6288C14.4501 14.8887 14.9384 14.919 15.3425 14.7072C15.7467 14.4959 16 14.0776 16 13.6211V2.37811C16 1.92381 15.7481 1.50633 15.3457 1.29352Z" fill="white"/>
<path d="M1.44706 0.666824C0.647913 0.666824 0 1.31478 0 2.11393V13.8861C0 14.6853 0.647913 15.3332 1.44706 15.3332C2.24621 15.3332 2.89412 14.6853 2.89412 13.8861V2.11393C2.89412 1.31478 2.24621 0.666824 1.44706 0.666824Z" fill="white"/>
</svg>
