<svg width="16" height="16" viewBox="0 0 16 16" fill="none" xmlns="http://www.w3.org/2000/svg">
<path d="M0.654256 14.7065C1.05631 14.9185 1.54316 14.8901 1.91868 14.6337L10.2341 8.94224C10.5315 8.73867 10.71 8.40172 10.7113 8.04057C10.7124 7.68025 10.5357 7.34183 10.2394 7.13624L1.92474 1.37122C1.54987 1.11127 1.06164 1.08096 0.657471 1.29285C0.253305 1.50414 6.67572e-06 1.92235 6.67572e-06 2.37886L6.67572e-06 13.6219C6.67572e-06 14.0762 0.251927 14.4937 0.654256 14.7065Z" fill="white"/>
<path d="M14.5529 15.3332C15.3521 15.3332 16 14.6852 16 13.8861V2.1139C16 1.31475 15.3521 0.666833 14.5529 0.666833C13.7538 0.666833 13.1059 1.3147 13.1059 2.1139L13.1059 13.8861C13.1059 14.6852 13.7538 15.3332 14.5529 15.3332Z" fill="white"/>
</svg>
