<svg width="40" height="40" viewBox="0 0 40 40" fill="none" xmlns="http://www.w3.org/2000/svg">
<path d="M20.0492 20.0001H20H19.9954C8.82711 20.0013 0 24.1189 0 29.3751C0 34.6325 8.82828 38.7501 20 38.7501C31.1717 38.7501 40 34.6325 40 29.3751C40 24.1303 31.1923 20.0127 20.0492 20.0001Z" fill="#F3F5F9"/>
<path d="M40 29.3751C40 24.1303 31.1923 20.0127 20.0492 20.0001H20V38.7501C31.1717 38.7501 40 34.6325 40 29.3751Z" fill="#E1E6F0"/>
<path d="M20 19.9177C14.4284 19.8433 4.76562 21.9263 4.76562 27.0314C4.76562 31.0402 11.3151 34.0626 20 34.0626C28.6849 34.0626 35.2344 31.0402 35.2344 27.0314C35.2344 21.9123 25.5084 19.8769 20 19.9177Z" fill="#CFD7E6"/>
<path d="M35.2344 27.0314C35.2344 21.9123 25.5084 19.8769 20 19.9177V34.0626C28.6849 34.0626 35.2344 31.0402 35.2344 27.0314Z" fill="#CFD7E6"/>
<path d="M26.9111 21.0564C23.4241 19.7941 21.1719 16.7248 21.1719 13.2367V10.6251H20H18.8281V13.2367C18.8281 16.7248 16.5759 19.7942 13.0889 21.0564C9.92578 22.2031 9.45312 23.8236 9.45312 24.6876C9.45312 27.765 14.7586 29.3751 20 29.3751C25.2414 29.3751 30.5469 27.765 30.5469 24.6876C30.5469 23.8236 30.0742 22.2031 26.9111 21.0564Z" fill="#F3F5F9"/>
<path d="M30.5469 24.6876C30.5469 23.8236 30.0742 22.2031 26.9111 21.0564C23.4241 19.7941 21.1719 16.7248 21.1719 13.2367V10.6251H20V29.3751C25.2414 29.3751 30.5469 27.765 30.5469 24.6876Z" fill="#E1E6F0"/>
<path d="M20 8.28137C21.9416 8.28137 23.5156 6.70737 23.5156 4.76575C23.5156 2.82412 21.9416 1.25012 20 1.25012C18.0584 1.25012 16.4844 2.82412 16.4844 4.76575C16.4844 6.70737 18.0584 8.28137 20 8.28137Z" fill="#F3F5F9"/>
<path d="M23.5156 4.76575C23.5156 2.82715 21.9386 1.25012 20 1.25012V8.28137C21.9386 8.28137 23.5156 6.70434 23.5156 4.76575Z" fill="#E1E6F0"/>
</svg>
