<svg width="16" height="16" viewBox="0 0 16 16" fill="none" xmlns="http://www.w3.org/2000/svg">
<path fill-rule="evenodd" clip-rule="evenodd" d="M8.95596 1.76867C8.36929 1.41067 7.63063 1.41067 7.04396 1.76867C6.65463 2.00667 6.19796 2.286 5.94129 2.44267C5.85796 2.494 5.76596 2.53 5.66996 2.54934C5.25529 2.632 4.36196 2.81067 3.64063 2.95467C2.78329 3.12667 2.16663 3.87867 2.16663 4.75267V7.21201C2.16663 10.6434 4.50196 13.634 7.83063 14.466H7.83129C7.94196 14.494 8.05796 14.494 8.16863 14.466H8.16929C11.498 13.634 13.8333 10.6434 13.8333 7.21201C13.8333 6.27801 13.8333 5.40134 13.8333 4.75267C13.8333 3.87867 13.2166 3.12667 12.3593 2.95467C11.638 2.81067 10.7446 2.632 10.33 2.54934C10.234 2.53 10.142 2.494 10.0586 2.44267C9.80196 2.286 9.34529 2.00667 8.95596 1.76867ZM7.99996 13.4767C10.8446 12.7307 12.8333 10.1587 12.8333 7.21201C12.8333 6.27801 12.8333 5.40134 12.8333 4.75267C12.8333 4.35534 12.5526 4.01334 12.1633 3.93534C11.442 3.79134 10.5486 3.61267 10.134 3.52934C9.92263 3.48734 9.72129 3.40867 9.53729 3.296C9.28063 3.13934 8.82329 2.86 8.43463 2.622C8.16796 2.45934 7.83196 2.45934 7.56529 2.622C7.17663 2.86 6.71929 3.13934 6.46263 3.296C6.27863 3.40867 6.07729 3.48734 5.86596 3.52934C5.45129 3.61267 4.55796 3.79134 3.83663 3.93534C3.44729 4.01334 3.16663 4.35534 3.16663 4.75267V7.21201C3.16663 10.1587 5.15529 12.7307 7.99996 13.4767Z" fill="#1E1E1E"/>
<path fill-rule="evenodd" clip-rule="evenodd" d="M7.33333 8.62602L9.64666 6.31335C9.84133 6.11801 10.1587 6.11801 10.3533 6.31335C10.5487 6.50801 10.5487 6.82535 10.3533 7.02002L7.68666 9.68669C7.49133 9.88202 7.17533 9.88202 6.98 9.68669L5.98 8.68668C5.78466 8.49202 5.78466 8.17468 5.98 7.98002C6.17466 7.78468 6.492 7.78468 6.68666 7.98002L7.33333 8.62602Z" fill="#1E1E1E"/>
</svg>
