<svg width="16" height="14" viewBox="0 0 16 14" fill="none" xmlns="http://www.w3.org/2000/svg">
<path d="M8 13.919C7.91906 13.919 7.83816 13.8981 7.76566 13.8562C7.68691 13.8107 5.81594 12.7244 3.91814 11.0876C2.79332 10.1175 1.89545 9.15534 1.24952 8.22784C0.413642 7.02766 -0.00670048 5.87322 8.07525e-05 4.79656C0.00801824 3.54375 0.456736 2.36556 1.26367 1.479C2.08423 0.5775 3.17929 0.0810623 4.3472 0.0810623C5.84398 0.0810623 7.21244 0.9195 8.00003 2.24769C8.78763 0.919531 10.1561 0.0810623 11.6529 0.0810623C12.7562 0.0810623 13.809 0.529 14.6172 1.34237C15.5042 2.23497 16.0082 3.49616 15.9999 4.8025C15.9931 5.87728 15.5649 7.02997 14.7272 8.2285C14.0792 9.15553 13.1826 10.1173 12.0622 11.0871C10.1713 12.7237 8.31381 13.81 8.23566 13.8555C8.16281 13.8978 8.08138 13.919 8 13.919ZM4.34717 1.01856C3.44648 1.01856 2.59764 1.40619 1.95698 2.11006C1.30605 2.82522 0.944016 3.78141 0.937579 4.8025C0.924735 6.83503 2.87848 8.95119 4.51976 10.3685C5.96947 11.6204 7.43991 12.5602 7.99916 12.9029C8.55553 12.5596 10.0156 11.6202 11.4593 10.369C13.0959 8.95062 15.0496 6.83247 15.0624 4.79659C15.0691 3.73812 14.6645 2.72 13.9522 2.00322C13.3213 1.36828 12.5047 1.01859 11.6529 1.01859C10.2197 1.01859 8.93091 2.02659 8.44609 3.52691C8.38356 3.72041 8.20338 3.8515 8.00006 3.8515C7.79669 3.8515 7.61653 3.72037 7.55403 3.52687C7.06913 2.02659 5.78041 1.01856 4.34717 1.01856Z" fill="#1E1E1E"/>
</svg>
