<svg width="24" height="23" viewBox="0 0 24 23" fill="none" xmlns="http://www.w3.org/2000/svg">
<path d="M23.7723 22.6943L17.5759 16.5969C19.1985 14.834 20.1955 12.5024 20.1955 9.93682C20.1947 4.44852 15.6742 0 10.0974 0C4.52055 0 0 4.44852 0 9.93682C0 15.4251 4.52055 19.8736 10.0974 19.8736C12.5069 19.8736 14.2638 19.3856 15.9998 18L22.4998 24C22.8029 24.2986 23.4685 24.0746 23.7716 23.776C24.0754 23.4775 24.0754 22.9929 23.7723 22.6943ZM10.0974 18C5.37877 18 1.99977 14.5804 1.99977 9.93682C1.99977 5.29321 5.37877 2 10.0974 2C14.816 2 18.4998 5.29321 18.4998 9.93682C18.4998 14.5804 14.816 18 10.0974 18Z" fill="#F89E53"/>
</svg>
