<svg width="24" height="25" viewBox="0 0 24 25" fill="none" xmlns="http://www.w3.org/2000/svg">
<g clip-path="url(#clip0_101_659)">
<path d="M21.051 9.5H20.955C20.8143 9.49876 20.6772 9.45516 20.5616 9.3749C20.446 9.29463 20.3573 9.18142 20.307 9.05C20.254 8.9231 20.24 8.78331 20.2667 8.64842C20.2934 8.51353 20.3597 8.38963 20.457 8.2925L20.5252 8.22425C20.9367 7.81126 21.1677 7.25207 21.1677 6.66913C21.1677 6.08618 20.9367 5.52699 20.5252 5.114L19.392 3.9815C18.9793 3.56977 18.4202 3.33854 17.8372 3.33854C17.2543 3.33854 16.6952 3.56977 16.2825 3.9815L16.2142 4.04975C16.1137 4.14658 15.9871 4.21196 15.8499 4.23785C15.7127 4.26375 15.571 4.24903 15.442 4.19552C15.3131 4.142 15.2026 4.05201 15.1241 3.93659C15.0455 3.82116 15.0024 3.68533 15 3.54575V3.449C14.9994 2.86597 14.7675 2.30699 14.3553 1.89473C13.943 1.48247 13.384 1.2506 12.801 1.25H11.199C10.616 1.2506 10.057 1.48247 9.64473 1.89473C9.23247 2.30699 9.0006 2.86597 9 3.449V3.54575C8.99634 3.68433 8.9526 3.81887 8.87405 3.9331C8.79551 4.04733 8.68553 4.13633 8.55744 4.18935C8.42936 4.24236 8.28865 4.2571 8.15235 4.2318C8.01606 4.20649 7.89002 4.14221 7.7895 4.04675L7.725 3.9785C7.31233 3.56677 6.75319 3.33554 6.17025 3.33554C5.58731 3.33554 5.02817 3.56677 4.6155 3.9785L3.4785 5.111C3.06709 5.52399 2.83609 6.08318 2.83609 6.66613C2.83609 7.24907 3.06709 7.80826 3.4785 8.22125L3.54675 8.2895C3.64504 8.39006 3.71083 8.51785 3.73557 8.65627C3.76031 8.7947 3.74287 8.93737 3.6855 9.06575C3.63403 9.19362 3.5456 9.30325 3.43151 9.3806C3.31741 9.45795 3.18284 9.49953 3.045 9.5H2.949C2.36597 9.5006 1.80699 9.73247 1.39473 10.1447C0.982467 10.557 0.750596 11.116 0.75 11.699V13.301C0.750596 13.884 0.982467 14.443 1.39473 14.8553C1.80699 15.2675 2.36597 15.4994 2.949 15.5H3.045C3.18571 15.5012 3.32279 15.5448 3.43837 15.6251C3.55396 15.7054 3.64268 15.8186 3.693 15.95C3.74597 16.0769 3.76 16.2167 3.73329 16.3516C3.70657 16.4865 3.64034 16.6104 3.543 16.7075L3.47475 16.7758C3.06334 17.1887 2.83234 17.7479 2.83234 18.3309C2.83234 18.9138 3.06334 19.473 3.47475 19.886L4.60725 21.0177C5.01985 21.4299 5.57919 21.6614 6.16238 21.6614C6.74556 21.6614 7.3049 21.4299 7.7175 21.0177L7.78575 20.9495C7.88637 20.8513 8.01415 20.7856 8.15255 20.7608C8.29095 20.7361 8.4336 20.7535 8.562 20.8107C8.68988 20.862 8.79953 20.9503 8.8769 21.0643C8.95427 21.1782 8.99583 21.3127 8.99625 21.4505V21.5472C8.99605 21.8366 9.05289 22.1231 9.16352 22.3904C9.27415 22.6578 9.4364 22.9007 9.64098 23.1053C9.84556 23.3099 10.0885 23.4721 10.3558 23.5827C10.6231 23.6934 10.9097 23.7502 11.199 23.75H12.801C13.384 23.7494 13.943 23.5175 14.3553 23.1053C14.7675 22.693 14.9994 22.134 15 21.551V21.4543C15.0037 21.3157 15.0474 21.1811 15.1259 21.0669C15.2045 20.9527 15.3145 20.8637 15.4426 20.8107C15.5706 20.7576 15.7114 20.7429 15.8476 20.7682C15.9839 20.7935 16.11 20.8578 16.2105 20.9533L16.2787 21.0215C16.6914 21.4332 17.2506 21.6645 17.8335 21.6645C18.4164 21.6645 18.9756 21.4332 19.3883 21.0215L20.5215 19.8898C20.9329 19.4768 21.1639 18.9176 21.1639 18.3346C21.1639 17.7517 20.9329 17.1925 20.5215 16.7795L20.4533 16.7113C20.355 16.6107 20.2892 16.4829 20.2644 16.3445C20.2397 16.2061 20.2571 16.0634 20.3145 15.935C20.3659 15.807 20.4542 15.6972 20.5683 15.6197C20.6824 15.5422 20.8171 15.5005 20.955 15.5H21.051C21.634 15.4994 22.193 15.2675 22.6053 14.8553C23.0175 14.443 23.2494 13.884 23.25 13.301V11.699C23.2494 11.116 23.0175 10.557 22.6053 10.1447C22.193 9.73247 21.634 9.5006 21.051 9.5ZM21.75 13.301C21.7498 13.4863 21.6761 13.664 21.545 13.795C21.414 13.9261 21.2363 13.9998 21.051 14H20.955C20.5198 14.0037 20.0953 14.1354 19.7344 14.3788C19.3735 14.6221 19.0923 14.9663 18.9257 15.3684C18.7591 15.7705 18.7145 16.2127 18.7976 16.64C18.8807 17.0672 19.0877 17.4606 19.3927 17.771L19.4603 17.8392C19.5912 17.9706 19.6647 18.1484 19.6647 18.3339C19.6647 18.5193 19.5912 18.6972 19.4603 18.8285L18.327 19.9603C18.1959 20.0913 18.0181 20.165 17.8328 20.165C17.6474 20.165 17.4696 20.0913 17.3385 19.9603L17.271 19.892C16.9605 19.5873 16.5671 19.3806 16.14 19.2977C15.7129 19.2149 15.2708 19.2595 14.8688 19.426C14.4669 19.5925 14.1228 19.8736 13.8794 20.2343C13.636 20.5949 13.504 21.0192 13.5 21.4543V21.551C13.4998 21.7363 13.4261 21.914 13.295 22.045C13.164 22.1761 12.9863 22.2498 12.801 22.25H11.199C11.0137 22.2498 10.836 22.1761 10.705 22.045C10.5739 21.914 10.5002 21.7363 10.5 21.551V21.4543C10.4979 21.0183 10.3671 20.5927 10.124 20.2308C9.88088 19.8689 9.53631 19.5869 9.13352 19.4201C8.73073 19.2533 8.28765 19.2092 7.85987 19.2933C7.4321 19.3774 7.03869 19.5859 6.729 19.8927L6.66075 19.961C6.52947 20.0917 6.35176 20.1651 6.1665 20.1651C5.98124 20.1651 5.80353 20.0917 5.67225 19.961L4.53975 18.8293C4.40881 18.6979 4.33528 18.5201 4.33528 18.3346C4.33528 18.1492 4.40881 17.9713 4.53975 17.84L4.608 17.7717C4.9134 17.4613 5.12061 17.0678 5.20379 16.6404C5.28697 16.213 5.24243 15.7705 5.07572 15.3682C4.90901 14.9659 4.62753 14.6216 4.26639 14.3783C3.90525 14.135 3.48045 14.0034 3.045 14H2.949C2.76367 13.9998 2.586 13.9261 2.45495 13.795C2.32391 13.664 2.2502 13.4863 2.25 13.301V11.699C2.2502 11.5137 2.32391 11.336 2.45495 11.205C2.586 11.0739 2.76367 11.0002 2.949 11H3.045C3.48023 10.9963 3.90474 10.8646 4.26561 10.6212C4.62648 10.3779 4.90774 10.0337 5.07433 9.63161C5.24091 9.2295 5.28545 8.78725 5.20239 8.36001C5.11933 7.93276 4.91235 7.53941 4.60725 7.229L4.53975 7.16075C4.40886 7.02957 4.33535 6.85182 4.33535 6.6665C4.33535 6.48118 4.40886 6.30343 4.53975 6.17225L5.67225 5.039C5.80334 4.90792 5.98112 4.83429 6.1665 4.83429C6.35188 4.83429 6.52966 4.90792 6.66075 5.039L6.72825 5.10725C7.03871 5.41221 7.43203 5.61908 7.85922 5.70211C8.28641 5.78514 8.72858 5.74065 9.13067 5.57419C9.53275 5.40773 9.87698 5.12664 10.1205 4.76596C10.364 4.40527 10.4959 3.98091 10.5 3.54575V3.449C10.5002 3.26367 10.5739 3.086 10.705 2.95495C10.836 2.82391 11.0137 2.7502 11.199 2.75H12.801C12.9863 2.7502 13.164 2.82391 13.295 2.95495C13.4261 3.086 13.4998 3.26367 13.5 3.449V3.54575C13.5038 3.98092 13.6357 4.40533 13.8791 4.76608C14.1225 5.12684 14.4667 5.40799 14.8687 5.57448C15.2708 5.74097 15.713 5.78545 16.1402 5.70236C16.5674 5.61928 16.9606 5.41231 17.271 5.10725L17.3392 5.039C17.4703 4.90792 17.6481 4.83429 17.8335 4.83429C18.0189 4.83429 18.1967 4.90792 18.3278 5.039L19.4603 6.17225C19.5911 6.30343 19.6647 6.48118 19.6647 6.6665C19.6647 6.85182 19.5911 7.02957 19.4603 7.16075L19.392 7.229C19.0869 7.53945 18.8799 7.93287 18.7968 8.36019C18.7138 8.7875 18.7584 9.22981 18.9251 9.63195C19.0917 10.0341 19.3731 10.3783 19.7341 10.6215C20.0951 10.8648 20.5197 10.9964 20.955 11H21.051C21.2363 11.0002 21.414 11.0739 21.545 11.205C21.6761 11.336 21.7498 11.5137 21.75 11.699V13.301Z" fill="#7B7B7B"/>
<path d="M12 7.25C10.9617 7.25 9.94662 7.55791 9.08326 8.13478C8.2199 8.71166 7.54699 9.5316 7.14963 10.4909C6.75227 11.4502 6.64831 12.5058 6.85088 13.5242C7.05345 14.5426 7.55347 15.4781 8.28769 16.2123C9.02192 16.9465 9.95738 17.4466 10.9758 17.6491C11.9942 17.8517 13.0498 17.7477 14.0091 17.3504C14.9684 16.953 15.7883 16.2801 16.3652 15.4167C16.9421 14.5534 17.25 13.5384 17.25 12.5C17.2484 11.1081 16.6948 9.77367 15.7106 8.78944C14.7263 7.80522 13.3919 7.25159 12 7.25ZM12 16.25C11.2583 16.25 10.5333 16.0301 9.91661 15.618C9.29993 15.206 8.81928 14.6203 8.53545 13.9351C8.25162 13.2498 8.17736 12.4958 8.32206 11.7684C8.46675 11.041 8.8239 10.3728 9.34835 9.84835C9.8728 9.3239 10.541 8.96675 11.2684 8.82205C11.9958 8.67736 12.7498 8.75162 13.4351 9.03545C14.1203 9.31928 14.706 9.79993 15.118 10.4166C15.5301 11.0333 15.75 11.7583 15.75 12.5C15.7488 13.4942 15.3533 14.4473 14.6503 15.1503C13.9473 15.8533 12.9942 16.2488 12 16.25Z" fill="#7B7B7B"/>
</g>
<defs>
<clipPath id="clip0_101_659">
<rect width="24" height="24" fill="white" transform="translate(0 0.5)"/>
</clipPath>
</defs>
</svg>
