<svg width="16" height="16" viewBox="0 0 16 16" fill="none" xmlns="http://www.w3.org/2000/svg">
<path d="M15.8315 3.26238L12.7066 0.137313C12.6187 0.0493751 12.4994 0 12.3751 0H5.1875C4.41209 0 3.78125 0.630845 3.78125 1.40625V7.5887C1.67481 7.82264 0.03125 9.61349 0.03125 11.7813C0.03125 14.1075 1.92378 16 4.25 16H14.5625C15.3379 16 15.9688 15.3692 15.9688 14.5938V3.59385C15.9688 3.46951 15.9194 3.35032 15.8315 3.26238ZM12.8438 1.60041L13.8622 2.61888L14.3683 3.12501H12.8438V1.60041ZM0.96875 11.7813C0.96875 9.97199 2.44072 8.50002 4.25 8.50002C6.05928 8.50002 7.53125 9.97199 7.53125 11.7813C7.53125 13.5906 6.05928 15.0625 4.25 15.0625C2.44072 15.0625 0.96875 13.5906 0.96875 11.7813ZM14.5625 15.0625H6.89841C7.741 14.3811 8.31681 13.3826 8.44259 12.25H13.3125C13.5714 12.25 13.7812 12.0401 13.7812 11.7813C13.7812 11.5224 13.5714 11.3125 13.3125 11.3125H8.44256C8.36612 10.6244 8.12369 9.98567 7.75606 9.43752H13.3125C13.5714 9.43752 13.7812 9.22764 13.7812 8.96877C13.7812 8.70989 13.5714 8.50002 13.3125 8.50002H6.89841C6.28837 8.0067 5.53869 7.67976 4.71875 7.5887V1.40625C4.71875 1.14778 4.92903 0.937502 5.1875 0.937502H11.9062V3.59376C11.9062 3.85263 12.1161 4.06251 12.375 4.06251H15.0312V14.5938C15.0312 14.8522 14.821 15.0625 14.5625 15.0625Z" fill="#1E1E1E"/>
</svg>
